<svg width="175" height="170" viewBox="0 0 175 170" fill="none" xmlns="http://www.w3.org/2000/svg">
<path d="M133.814 89.6978L95.8151 8.20863C94.8954 6.24067 93.4968 4.5348 91.7474 3.24705C89.998 1.95928 87.9536 1.13091 85.8012 0.837471C83.6488 0.544036 81.4573 0.794998 79.427 1.56746C77.3967 2.33992 75.5927 3.60871 74.1798 5.25864L3.52731 87.809C1.90914 89.7066 0.870675 92.0295 0.535812 94.5008C0.20095 96.972 0.583758 99.4874 1.6386 101.747C2.69344 104.007 4.37586 105.916 6.48526 107.246C8.59465 108.576 11.0421 109.272 13.5358 109.25L122.183 108.202C124.357 108.176 126.49 107.606 128.387 106.544C130.284 105.481 131.884 103.96 133.041 102.119C134.198 100.279 134.875 98.1771 135.01 96.0071C135.145 93.8371 134.734 91.6679 133.814 89.6978Z" fill="url(#paint0_linear_7_588)"/>
<path d="M39.0088 149.996L91.0704 168.945C98.4628 171.635 106.637 167.824 109.327 160.431L128.276 108.37C130.967 100.977 127.155 92.8034 119.763 90.1128L67.7012 71.1639C60.3088 68.4733 52.1347 72.2848 49.4441 79.6772L30.4953 131.739C27.8046 139.131 31.6164 147.305 39.0088 149.996Z" fill="url(#paint1_linear_7_588)"/>
<path d="M171.525 96.378C181.615 68.6565 167.321 38.0045 139.6 27.9147C111.879 17.8249 81.2265 32.1182 71.1367 59.8397C61.0469 87.5611 75.3402 118.213 103.062 128.303C130.783 138.393 161.435 124.099 171.525 96.378Z" fill="url(#paint2_linear_7_588)"/>
<path style="mix-blend-mode:multiply" d="M39.0088 149.996L91.0704 168.945C98.4628 171.635 106.637 167.824 109.327 160.431L128.276 108.37C130.967 100.977 127.155 92.8034 119.763 90.1128L67.7012 71.1639C60.3088 68.4733 52.1347 72.2848 49.4441 79.6772L30.4953 131.739C27.8046 139.131 31.6164 147.305 39.0088 149.996Z" fill="url(#paint3_linear_7_588)"/>
<defs>
<linearGradient id="paint0_linear_7_588" x1="109.042" y1="105.045" x2="59.8433" y2="-0.462781" gradientUnits="userSpaceOnUse">
<stop stop-color="#FCC649"/>
<stop offset="0.5" stop-color="#FDBF29"/>
<stop offset="1" stop-color="#FC9F12"/>
</linearGradient>
<linearGradient id="paint1_linear_7_588" x1="128.583" y1="145.635" x2="83.2498" y2="48.4168" gradientUnits="userSpaceOnUse">
<stop stop-color="#31FFFF"/>
<stop offset="1" stop-color="#2EB5FF"/>
</linearGradient>
<linearGradient id="paint2_linear_7_588" x1="170.425" y1="103.491" x2="125.086" y2="6.2606" gradientUnits="userSpaceOnUse">
<stop stop-color="#CD9DFF"/>
<stop offset="0.5" stop-color="#9A3CFF"/>
<stop offset="1" stop-color="#711DFF"/>
</linearGradient>
<linearGradient id="paint3_linear_7_588" x1="128.583" y1="145.635" x2="83.2498" y2="48.4168" gradientUnits="userSpaceOnUse">
<stop stop-color="#31FFFF"/>
<stop offset="1" stop-color="#2EB5FF"/>
</linearGradient>
</defs>
</svg>
