<svg width="355" height="92" viewBox="0 0 355 92" fill="none" xmlns="http://www.w3.org/2000/svg">
<path d="M49.7158 56.0146C49.7158 59.2731 48.9818 61.9229 47.5137 63.9639C46.0456 66.0049 44.1478 67.652 41.8203 68.9053C39.5286 70.1585 36.9505 71.0179 34.0859 71.4834C31.2572 71.9847 28.4821 72.2354 25.7607 72.2354C21.2132 72.2354 16.6836 71.5729 12.1719 70.248C7.66016 68.9232 3.75716 67.1865 0.462891 65.0381L5.08203 55.9072C9.02083 58.1989 12.6195 59.8281 15.8779 60.7949C19.1722 61.7259 22.4665 62.1914 25.7607 62.1914C30.2367 62.1914 33.4951 61.7259 35.5361 60.7949C37.5771 59.8281 38.5977 58.5033 38.5977 56.8203C38.5977 55.9967 38.3112 55.3164 37.7383 54.7793C37.1654 54.2422 36.2165 53.7588 34.8916 53.3291C33.5667 52.8636 31.8122 52.416 29.6279 51.9863C27.4795 51.5208 24.7939 51.0374 21.5713 50.5361C18.9932 50.1064 16.5404 49.5872 14.2129 48.9785C11.9212 48.334 9.89811 47.4388 8.14355 46.293C6.389 45.1471 4.97461 43.6969 3.90039 41.9424C2.86198 40.1878 2.34277 37.9857 2.34277 35.3359C2.34277 32.6504 3.02311 30.3229 4.38379 28.3535C5.78027 26.3483 7.58854 24.7012 9.80859 23.4121C12.0645 22.123 14.5889 21.1921 17.3818 20.6191C20.1748 20.0462 22.9678 19.7598 25.7607 19.7598C29.6995 19.7598 33.513 20.279 37.2012 21.3174C40.9251 22.32 44.1836 23.7702 46.9766 25.668L42.5723 34.2617C39.7793 32.5072 37.0579 31.3255 34.4082 30.7168C31.7943 30.0723 28.9118 29.75 25.7607 29.75C24.4359 29.75 23.0573 29.8216 21.625 29.9648C20.1927 30.1081 18.8678 30.3945 17.6504 30.8242C16.4329 31.2181 15.4124 31.7731 14.5889 32.4893C13.8011 33.1696 13.4072 34.0111 13.4072 35.0137C13.4072 36.3385 14.571 37.4307 16.8984 38.29C19.2617 39.1136 23.2721 39.9372 28.9297 40.7607C32.0091 41.1904 34.82 41.7454 37.3623 42.4258C39.9046 43.0703 42.0889 43.9655 43.915 45.1113C45.7412 46.2214 47.1556 47.6715 48.1582 49.4619C49.1966 51.2165 49.7158 53.4007 49.7158 56.0146Z" fill="black"/>
<path d="M101.228 63.8564C98.0049 67.0791 94.6032 69.2812 91.0225 70.4629C87.4775 71.6445 83.6283 72.2354 79.4746 72.2354C75.2852 72.2354 71.4717 71.6087 68.0342 70.3555C64.6325 69.1022 61.7321 67.3477 59.333 65.0918C56.9697 62.8001 55.1436 60.043 53.8545 56.8203C52.6012 53.5977 51.9746 49.999 51.9746 46.0244C51.9746 42.2288 52.6012 38.7197 53.8545 35.4971C55.1436 32.2386 56.8623 29.4635 59.0107 27.1719C61.195 24.8444 63.7552 23.0361 66.6914 21.7471C69.6276 20.4222 72.7428 19.7598 76.0371 19.7598C79.4746 19.7598 82.4645 20.4759 85.0068 21.9082C87.5492 23.3405 89.3932 25.4352 90.5391 28.1924V20.9414H100.476V44.252H90.5391C90.5391 39.8477 89.3216 36.3385 86.8867 33.7246C84.4876 31.0749 81.3545 29.75 77.4873 29.75C75.9476 29.75 74.3184 30.0723 72.5996 30.7168C70.9167 31.3255 69.359 32.2923 67.9268 33.6172C66.5303 34.9421 65.3665 36.625 64.4355 38.666C63.5046 40.707 63.0391 43.1598 63.0391 46.0244C63.0391 48.8174 63.4867 51.2344 64.3818 53.2754C65.277 55.2806 66.4408 56.9456 67.873 58.2705C69.3411 59.5596 71.0599 60.5443 73.0293 61.2246C75.0345 61.8691 77.0934 62.1914 79.2061 62.1914C82.8226 62.1914 85.9557 61.6364 88.6055 60.5264C91.291 59.3805 93.6006 57.8766 95.5342 56.0146L101.228 63.8564Z" fill="black"/>
<path d="M161.921 32.8115C160.596 32.167 159.235 31.6836 157.839 31.3613C156.478 31.0033 154.903 30.8242 153.112 30.8242C150.642 30.8242 148.314 31.2002 146.13 31.9521C143.981 32.6683 142.119 33.7604 140.544 35.2285C138.968 36.6966 137.733 38.5407 136.838 40.7607C135.979 42.945 135.549 45.541 135.549 48.5488V61.0098L171.5 61.2246V71H113.098V61.0098H124.431V30.9854L103.5 30.7168V20.2432L135.549 20.9414V33.5098C137.375 28.4967 140.061 24.9518 143.605 22.875C147.186 20.7982 151.429 19.7598 156.335 19.7598C157.875 19.7598 159.486 19.9209 161.169 20.2432C162.852 20.5654 164.499 21.1383 166.11 21.9619L161.921 32.8115Z" fill="black"/>
<path d="M209.148 71H175.525V61.0098H186.59V30.9854H175.525V20.9414H197.708V61.0098H209.148V71Z" fill="black"/>
<path d="M213.827 20.9414H224.945V25.4531C227.058 23.5553 229.188 22.141 231.337 21.21C233.521 20.2432 236.01 19.7598 238.803 19.7598C242.025 19.7598 245.015 20.4222 247.772 21.7471C250.53 23.0361 252.893 24.8444 254.862 27.1719C256.832 29.4635 258.389 32.2386 259.535 35.4971C260.681 38.7197 261.254 42.2288 261.254 46.0244C261.254 49.8558 260.681 53.3828 259.535 56.6055C258.389 59.8281 256.832 62.6032 254.862 64.9307C252.893 67.2223 250.53 69.0127 247.772 70.3018C245.015 71.5908 242.025 72.2354 238.803 72.2354C236.01 72.2354 233.521 71.734 231.337 70.7314C229.188 69.7288 227.058 68.2786 224.945 66.3809V91.0342H213.827V20.9414ZM224.945 57.5723C226.27 59.0404 227.953 60.1862 229.994 61.0098C232.071 61.7975 234.058 62.1914 235.956 62.1914C240.146 62.1914 243.547 60.7054 246.161 57.7334C248.811 54.7614 250.136 50.8584 250.136 46.0244C250.136 41.1904 248.811 37.2695 246.161 34.2617C243.547 31.2539 240.146 29.75 235.956 29.75C234.058 29.75 232.071 30.1439 229.994 30.9316C227.953 31.6836 226.27 32.7936 224.945 34.2617V57.5723Z" fill="black"/>
<path d="M316.5 52.8457C315.927 58.1094 313.2 64.501 309.619 67.6162C306.074 70.6956 301.634 72.2354 296.299 72.2354C293.363 72.2354 290.677 71.752 288.242 70.7852C285.807 69.8184 283.73 68.4756 282.012 66.7568C280.293 65.0381 278.95 62.9792 277.983 60.5801C277.052 58.1452 276.587 55.4954 276.587 52.6309V30.9854H265.254V20.9414H276.587V0.907227H287.705V20.9414H308.706V30.9854H287.705V52.6309C287.705 55.8535 288.493 58.2526 290.068 59.8281C291.644 61.4036 293.721 62.1914 296.299 62.1914C299.45 62.1914 301.795 61.2783 303.335 59.4521C304.875 57.626 305.788 55.4238 306.074 52.8457H316.5Z" fill="black"/>
<path d="M354.5 71H321.555V57.4648L354.5 57.7334V71Z" fill="black"/>
</svg>
